<?xml version="1.0" encoding="UTF-8" standalone="no"?>
<!-- Created with Inkscape (http://www.inkscape.org/) -->

<svg
   version="1.1"
   id="svg2"
   width="900"
   height="650"
   viewBox="0 0 900 650"
   sodipodi:docname="project_template.svg"
   xml:space="preserve"
   inkscape:version="1.2.1 (9c6d41e410, 2022-07-14)"
   xmlns:inkscape="http://www.inkscape.org/namespaces/inkscape"
   xmlns:sodipodi="http://sodipodi.sourceforge.net/DTD/sodipodi-0.dtd"
   xmlns="http://www.w3.org/2000/svg"
   xmlns:svg="http://www.w3.org/2000/svg"><defs
     id="defs6"><clipPath
       clipPathUnits="userSpaceOnUse"
       id="clipPath359"><rect
         style="fill:#000000;stroke:#000000;stroke-width:4.15748"
         id="rect361"
         width="776.69489"
         height="545.33899"
         x="-344.27966"
         y="-234.11017" /></clipPath><clipPath
       clipPathUnits="userSpaceOnUse"
       id="clipPath419"><path
         style="fill:#000000;stroke:#000000;stroke-width:4.15748"
         d="m -295.73623,78.84005 597.32522,203.125 3.44279,-13.77119 63.00318,-198.30508 -14.80402,-5.1642 2.40995,-8.95127 -1.37711,-1.03284 13.4269,-43.72352 -10.67267,-14.11546 -27.54237,-7.57416 15.49258,-58.18326 -17.55826,-4.81991 -34.08368,84.69279 -7.91844,34.77225 -211.73199,-60.59322 c 0,0 -5.59454,-3.87315 -7.91843,-4.38957 -2.32389,-0.51642 -8.34878,-1.11891 -8.69306,-0.94677 -0.34428,0.17214 -176.73004,-51.127 -176.73004,-51.127 l -0.12172,-8.21618 -1.58237,-2.43443 -12.41557,-5.11229 -4.3211,-42.29813 -5.78176,-2.37357 -4.50369,4.19939 4.44283,39.49854 -12.17213,-5.23402 -11.80696,-110.46202 -13.81536,-4.19939 -66.56819,66.57266 5.85275,32.19015 -27.19809,27.71451 13.59905,69.63057 4.30349,2.15174 -0.94677,1.03284 2.75424,15.66473 -10.32839,12.308 -7.83236,-38.73147 -7.31595,-2.23781 -4.21742,4.64777 8.26271,40.28072 -11.4473,12.91049 1.37712,7.57415 -18.50503,21.51748 z"
         id="path421" /></clipPath></defs><sodipodi:namedview
     id="namedview4"
     pagecolor="#ffffff"
     bordercolor="#000000"
     borderopacity="0.25"
     inkscape:showpageshadow="2"
     inkscape:pageopacity="0.0"
     inkscape:pagecheckerboard="0"
     inkscape:deskcolor="#d1d1d1"
     showgrid="false"
     inkscape:zoom="0.72615385"
     inkscape:cx="288.50635"
     inkscape:cy="218.2733"
     inkscape:window-width="1920"
     inkscape:window-height="1111"
     inkscape:window-x="-9"
     inkscape:window-y="-9"
     inkscape:window-maximized="1"
     inkscape:current-layer="g8" /><g
     inkscape:groupmode="layer"
     inkscape:label="Image"
     id="g8"><rect
       style="fill:#000000;stroke:#000000;stroke-width:4.13134"
       id="rect423"
       width="895.86865"
       height="645.86865"
       x="30.634354"
       y="-202.76715" /><circle
       style="fill:#ffffff;fill-opacity:1;stroke:none;stroke-width:4.24689"
       id="path1031"
       cx="478.56866"
       cy="120.16717"
       r="255.37656" /></g></svg>
